<?xml version="1.0" encoding="UTF-8"?>
<svg id="Camada_1" data-name="Camada 1" xmlns="http://www.w3.org/2000/svg" viewBox="0 0 96 96">
  <defs>
    <style>
      .cls-1 {
        fill: #777;
      }

      .cls-2 {
        fill: none;
        stroke: #a3a3a3;
        stroke-linecap: round;
        stroke-miterlimit: 10;
        stroke-width: 5px;
      }
    </style>
  </defs>
  <path class="cls-1" d="M65.42,77H31.08c-6.8,0-12.33-5.53-12.33-12.33V30.33c0-6.8,5.53-12.33,12.33-12.33h34.35c6.8,0,12.33,5.53,12.33,12.33v34.35c0,6.8-5.53,12.33-12.33,12.33ZM31.08,24c-3.49,0-6.33,2.84-6.33,6.33v34.35c0,3.49,2.84,6.33,6.33,6.33h34.35c3.49,0,6.33-2.84,6.33-6.33V30.33c0-3.49-2.84-6.33-6.33-6.33H31.08Z"/>
  <line class="cls-2" x1="62" y1="61.25" x2="34.5" y2="33.75"/>
  <line class="cls-2" x1="62" y1="33.75" x2="34.5" y2="61.25"/>
</svg>