<?xml version="1.0" encoding="UTF-8"?>
<svg id="Camada_1" data-name="Camada 1" xmlns="http://www.w3.org/2000/svg" viewBox="0 0 96 96">
  <defs>
    <style>
      .cls-1 {
        fill: #5a938c;
      }
    </style>
  </defs>
  <path class="cls-1" d="M65.17,77.5H30.83c-6.8,0-12.33-5.53-12.33-12.33V30.83c0-6.8,5.53-12.33,12.33-12.33h34.35c6.8,0,12.33,5.53,12.33,12.33v34.35c0,6.8-5.53,12.33-12.33,12.33ZM30.83,24.5c-3.49,0-6.33,2.84-6.33,6.33v34.35c0,3.49,2.84,6.33,6.33,6.33h34.35c3.49,0,6.33-2.84,6.33-6.33V30.83c0-3.49-2.84-6.33-6.33-6.33H30.83Z"/>
  <path class="cls-1" d="M46.47,60.81c-1.56-.03-3.07-.16-4.55-.4-1.47-.24-2.66-.57-3.57-1v-3.61c.96.45,2.19.85,3.7,1.19,1.5.34,2.97.52,4.42.55v-8.58c-2.8-.76-4.86-1.73-6.16-2.89-1.3-1.16-1.95-2.75-1.95-4.76s.73-3.74,2.19-4.93c1.46-1.19,3.43-1.85,5.93-2v-3.74h2.72v3.7c1.5.03,2.87.19,4.1.49,1.23.3,2.36.66,3.38,1.08l-1.15,3.14c-.91-.37-1.91-.69-3-.96-1.09-.27-2.2-.45-3.34-.53v8.54c1.87.54,3.43,1.11,4.67,1.72,1.25.61,2.19,1.36,2.83,2.25.64.89.96,2.05.96,3.46,0,1.98-.74,3.59-2.21,4.82-1.47,1.23-3.56,1.99-6.25,2.27v4.72h-2.72v-4.55ZM46.47,37.65c-1.53.11-2.66.47-3.38,1.06-.72.59-1.08,1.36-1.08,2.29,0,1.13.32,2,.96,2.61.64.61,1.81,1.13,3.51,1.55v-7.52ZM49.19,57.33c1.67-.17,2.89-.56,3.65-1.17.76-.61,1.15-1.4,1.15-2.36,0-1.08-.34-1.89-1.02-2.44-.68-.55-1.94-1.06-3.78-1.51v7.48Z"/>
</svg>