<?xml version="1.0" encoding="UTF-8"?>
<svg id="Camada_1" data-name="Camada 1" xmlns="http://www.w3.org/2000/svg" viewBox="0 0 96 96">
  <defs>
    <style>
      .cls-1 {
        fill: #597da9;
      }
    </style>
  </defs>
  <path class="cls-1" d="M65.17,77.5H30.83c-6.8,0-12.33-5.53-12.33-12.33V30.83c0-6.8,5.53-12.33,12.33-12.33h34.35c6.8,0,12.33,5.53,12.33,12.33v34.35c0,6.8-5.53,12.33-12.33,12.33ZM30.83,24.5c-3.49,0-6.33,2.84-6.33,6.33v34.35c0,3.49,2.84,6.33,6.33,6.33h34.35c3.49,0,6.33-2.84,6.33-6.33V30.83c0-3.49-2.84-6.33-6.33-6.33H30.83Z"/>
  <path class="cls-1" d="M50.72,61.36l13.61-23.58c1.21-2.09-.3-4.71-2.72-4.71h-27.23c-2.42,0-3.93,2.62-2.72,4.71l13.61,23.58c1.21,2.09,4.23,2.09,5.44,0Z"/>
</svg>